<svg xmlns="http://www.w3.org/2000/svg" viewBox="0 0 16 16"><defs><linearGradient id="a" x1="16.538%" x2="159.438%" y1="63.66%" y2="19.963%"><stop offset="0%" stop-color="#F69923"/><stop offset="31.23%" stop-color="#F79A23"/><stop offset="83.83%" stop-color="#E97826"/></linearGradient><linearGradient id="b" x1="-217.811%" x2="74.731%" y1="394.453%" y2="13.74%"><stop offset="32.33%" stop-color="#9E2064"/><stop offset="63.02%" stop-color="#C92037"/><stop offset="75.14%" stop-color="#CD2335"/><stop offset="100%" stop-color="#E97826"/></linearGradient><linearGradient id="c" x1="-20.658%" x2="125.228%" y1="192.493%" y2="-136.438%"><stop offset="0%" stop-color="#282662"/><stop offset="9.548%" stop-color="#662E8D"/><stop offset="78.82%" stop-color="#9F2064"/><stop offset="94.87%" stop-color="#CD2032"/></linearGradient><linearGradient id="d" x1="-80.07%" x2="146.218%" y1="170.504%" y2="-44.376%"><stop offset="32.33%" stop-color="#9E2064"/><stop offset="63.02%" stop-color="#C92037"/><stop offset="75.14%" stop-color="#CD2335"/><stop offset="100%" stop-color="#E97826"/></linearGradient><linearGradient id="e" x1="-18.401%" x2="164.863%" y1="77.341%" y2="-41.406%"><stop offset="0%" stop-color="#282662"/><stop offset="9.548%" stop-color="#662E8D"/><stop offset="78.82%" stop-color="#9F2064"/><stop offset="94.87%" stop-color="#CD2032"/></linearGradient><linearGradient id="f" x1="-34.767%" x2="110.656%" y1="187.767%" y2="-51.168%"><stop offset="32.33%" stop-color="#9E2064"/><stop offset="63.02%" stop-color="#C92037"/><stop offset="75.14%" stop-color="#CD2335"/><stop offset="100%" stop-color="#E97826"/></linearGradient><linearGradient id="g" x1="-129.874%" x2="66.423%" y1="465.634%" y2="17.191%"><stop offset="32.33%" stop-color="#9E2064"/><stop offset="63.02%" stop-color="#C92037"/><stop offset="75.14%" stop-color="#CD2335"/><stop offset="100%" stop-color="#E97826"/></linearGradient></defs><g fill="none"><path d="M10.796 1.111c-.677.122-1.256.648-2.049 1.364l.968 1.133a14.88 14.88 0 0 1 1.616-1.494l-.062.048c-.169.14-.403.658-1.18 1.541.747-.028 1.742-.239 2.678-.357.279-1.157-.273-1.686-.273-1.686s-.725-.724-1.698-.549Z" fill="url(#a)" transform="rotate(11 16.885 18.385)"/><path d="M7.569 6.24c.221-.306.445-.606.672-.897a26.5 26.5 0 0 1 .713-.88l.043-.051c.237-.279.477-.547.718-.803l-.893-1.175c-2.348 2.343-2.88 3.12-2.888 3.129l1.02 1.558c.203-.3.407-.593.615-.88Z" fill="url(#b)" transform="rotate(11 16.885 18.385)"/><path d="M3.254 14.057c-.126.255-.251.516-.378.78l-.005.012-.054.113c-.085.18-.159.34-.329.708.28.094.503.342.715.624-.022-.292.36-.518.05-.73 1.377.046 2.458-.048 2.873-.832-.192-.116-.716-.012-1.368-.039.958-.317 2.161-.842 2.161-1.523-.021.016-1.833.814-2.828.68l-.766.063c-.025.048-.048.096-.071.144Z" fill="url(#c)" transform="rotate(11 16.885 18.385)"/><path d="M3.611 12.785a64.227 64.227 0 0 1 1.028-1.897 60.976 60.976 0 0 1 1.112-1.9 47.368 47.368 0 0 1 1.183-1.84l.021-.03C6.282 6.06 5.94 5.538 5.929 5.55c-.22.267-2.318 2.17-3.768 6.815l.952 1.393c.125-.25.254-.502.387-.758l.111-.214Z" fill="url(#d)" transform="rotate(11 16.885 18.385)"/><path d="M2.147 12.413c-.12.446-.275 1.029-.277 1.044-.297-.353-1.067-.364-1.066-.361.496 1.16 1.002 1.22 1.066 1.816-.305.046-.723-.02-1.205-.152.503.343.881.438 1.029.463-.463.021-.944.257-1.43.528.71-.214 1.018-.294 1.43-.224-.528.984-.953 2.111-1.276 3.38.2-.044.815-.527.882-.663.116-.29.298-.841 1.185-3.22.03-.08.07-.142.104-.214l.03-.06a65.401 65.401 0 0 1 .491-.99l-.95-1.396a.443.443 0 0 1-.013.049Z" fill="url(#e)" transform="rotate(11 16.885 18.385)"/><path d="M3.342 13.922c0 .063 1.263.045 1.749-.068.844-.196 4.134-2.12 4.639-4.059-1.088.254-1.572-.004-1.622 0a3.079 3.079 0 0 0 1.786-1.29 3.617 3.617 0 0 1-1.21.358l-.045.005c.299-.092.549-.196.766-.317a2.408 2.408 0 0 0 .437-.308 2.372 2.372 0 0 0 .306-.326l.082-.12a6.123 6.123 0 0 0 .39-.669l.033-.07c.03-.066.054-.126.074-.178a1.45 1.45 0 0 0 .057-.185.926.926 0 0 1-.1.05c-.258.114-.7.218-1.057.267l.704-.057-.704.057-.123.015c.001 0-.91-1.275-1.976.167-1.066 1.443-4.057 6.467-4.186 6.728Z" fill="url(#f)" transform="rotate(11 16.885 18.385)"/><path d="M10.122 3.678c-.214.244-1.743 2.113-2.547 3.509l1.947-.168c.701-.239 1.015-.455 1.319-.768a9.28 9.28 0 0 0 .242-.27c.248-.286.617-.645.834-.958.21-.302.394-.603.535-.872a3.403 3.403 0 0 0 .317-.826c-.937.12-1.9.326-2.647.353Z" fill="url(#g)" transform="rotate(11 16.885 18.385)"/></g></svg>