<svg xmlns="http://www.w3.org/2000/svg" viewBox="0 0 16 16"><g fill="#585E6F" fill-rule="evenodd"><path d="M1 1h13a1 1 0 0 1 1 1v12a1 1 0 0 1-1 1H1a1 1 0 0 1-1-1V2a1 1 0 0 1 1-1Zm1.5 5a.5.5 0 0 0-.5.5v3a.5.5 0 0 0 1 0v-3a.5.5 0 0 0-.5-.5Zm2-1a.5.5 0 0 0-.5.5v5a.5.5 0 1 0 1 0v-5a.5.5 0 0 0-.5-.5Zm2-1a.5.5 0 0 0-.5.5v7a.5.5 0 1 0 1 0v-7a.5.5 0 0 0-.5-.5Zm2 2a.5.5 0 0 0-.5.5v3a.5.5 0 0 0 1 0v-3a.5.5 0 0 0-.5-.5Zm2-1a.5.5 0 0 0-.5.5v5a.5.5 0 1 0 1 0v-5a.5.5 0 0 0-.5-.5Zm2 2a.5.5 0 0 0-.5.5v1a.5.5 0 1 0 1 0v-1a.5.5 0 0 0-.5-.5Z" opacity=".85"/><path d="M11 5.638V5.5a.5.5 0 1 0-1 0v1.088l-1 .95V6.5a.5.5 0 0 0-1 0v1.988l-1 .95V4.5a.5.5 0 0 0-1 0v5.887l-4.311 4.096A1 1 0 0 1 0 13.758V2a1 1 0 0 1 1-1h12.378a1 1 0 0 1 .689 1.725L11 5.638ZM2.5 6a.5.5 0 0 0-.5.5v3a.5.5 0 0 0 1 0v-3a.5.5 0 0 0-.5-.5Zm2-1a.5.5 0 0 0-.5.5v5a.5.5 0 1 0 1 0v-5a.5.5 0 0 0-.5-.5Z"/></g></svg>