<svg xmlns="http://www.w3.org/2000/svg" viewBox="0 0 16 16"><g fill="none" fill-rule="evenodd"><path d="M1 1h14a1 1 0 0 1 1 1v12a1 1 0 0 1-1 1H1a1 1 0 0 1-1-1V2a1 1 0 0 1 1-1Zm.475 2.108a.625.625 0 1 0 0-1.25.625.625 0 0 0 0 1.25Zm2 0a.625.625 0 1 0 0-1.25.625.625 0 0 0 0 1.25Zm2 0a.625.625 0 1 0 0-1.25.625.625 0 0 0 0 1.25ZM1.995 7l3.061 1.515h-.282l-2.779 1.35v1.292l3.906-2.011V7.78L1.995 5.818V7Zm8.936 3.957V9.78H7v1.178h3.93Z" fill="#585E6F" opacity=".4"/><path d="M1.475 3.108a.625.625 0 1 1 0-1.25.625.625 0 0 1 0 1.25Zm2 0a.625.625 0 1 1 0-1.25.625.625 0 0 1 0 1.25Zm2 0a.625.625 0 1 1 0-1.25.625.625 0 0 1 0 1.25Z" fill="#5A5F6F" opacity=".9"/><path d="M1.995 7V5.819L5.901 7.78v1.366l-3.906 2.01v-1.29l2.78-1.35h.281L1.995 7Zm8.936 3.958H7V9.78h3.93" fill="#5A5F6F"/></g></svg>