<svg xmlns="http://www.w3.org/2000/svg" viewBox="0 0 16 16"><g fill="none" fill-rule="evenodd"><rect fill="#2A343E" width="16" height="14" y="1" rx="1"/><path d="M1.475 3.108a.625.625 0 1 0 0-1.25.625.625 0 0 0 0 1.25Z" fill="#D15347"/><path d="M1.995 7V5.819L5.901 7.78v1.366l-3.906 2.01v-1.29l2.78-1.35h.281L1.995 7Zm8.936 3.958H7V9.78h3.93" fill="#EDF2F7"/><path d="M3.475 3.108a.625.625 0 1 0 0-1.25.625.625 0 0 0 0 1.25Z" fill="#D8A144"/><path d="M5.475 3.108a.625.625 0 1 0 0-1.25.625.625 0 0 0 0 1.25Z" fill="#62AD50"/></g></svg>