<svg xmlns="http://www.w3.org/2000/svg" viewBox="0 0 16 16"><g fill="none" fill-rule="evenodd" transform="translate(1 1)"><rect fill="#9161CE" width="14" height="14" rx="2.4"/><path d="M3.955 3.003h3.499c.732 0 1.32.166 1.761.503.442.336.664.841.664 1.521 0 .412-.101.518-.302.81-.202.293-.49.522-.865.682.503.13.885.368 1.144.737.258.37.388.832.388 1.39 0 .32-.057.789-.171 1.066a1.81 1.81 0 0 1-.538.72 2.736 2.736 0 0 1-.938.48c-.382.12-.835.179-1.36.179H3.954V3.003Zm3.572 3.173c.344 0 .63-.096.858-.293.229-.197.343-.23.343-.595 0-.412-.103-.702-.308-.87-.206-.166-.504-.251-.892-.251H5.385v2.009h2.142ZM5.385 9.924h2.337c.435 0 .773-.112 1.011-.338.24-.224.362-.713.362-1.125 0-.405-.12-.714-.362-.933-.242-.22-.576-.325-1.011-.325H5.385v2.721Z" fill="#EDF2F7" fill-rule="nonzero"/></g></svg>