<svg xmlns="http://www.w3.org/2000/svg" viewBox="0 0 16 16"><g fill="#5B6071"><path d="M15.678 7.832c-.822-.787-3.749-1.22-5.046-1.363.063-.148-1.068-.358-1.023-.515.176-.077.367-.149.565-.209.024.07.775.373.84.502 2.608.071 2.797-1.896 2.903-2.444.104-.536.185-1.604 1.08-2.55-1.333-.387-4.181.493-4.823 1.96-.242-.09-.332.434-.571.392C9.432 2.917 8.539 1 6.197 1 3.232 1 0 3.435 0 7.557c0 3.465 1.35 7.185 3.193 7.455.977.143 1.617-1.39 1.736-1.782.099.268.52 2.033.62 2.245.148.315.894.696 1.193.37.385.213 1.088.327 1.473-.24.74.156 1.434-.393 1.448-.918.364-.019.805-.672.726-1.077-.059-.298-1.16-2.139-1.404-2.508.482.391 1.705.502 1.854 0 .778.609 1.992.29 2.088-.205.946.244 2.03-.293 1.853-.944 1.52-.104 1.325-1.714.898-2.121Z" opacity=".4"/><path d="M11.447 4.4c.327-.647.739-1.353 1.258-1.79-.572.23-1.136.916-1.47 1.648a5.156 5.156 0 0 0-.517-.287c.466-.99 1.548-1.816 2.74-1.88-.799.72-.515 2.22-1.172 3.012a8.59 8.59 0 0 0-.839-.704zm-.516 1.052c0-.025.01-.216.027-.303a2.773 2.773 0 0 0-.479-.062c-.01.185.079.5.167.69.606-.012 1.044-.193 1.302-.359-.22-.102-.594-.192-.879-.247-.032.066-.11.233-.138.28zm-2.254 5.114v.003a8.602 8.602 0 0 1-.256-.627c.38.55 1.57.267 1.508-.226.582.436 1.781-.073 1.509-.685.583.271 1.25-.274 1.1-.51.995.19 1.948.38 2.247.457-.199.322-.651.55-1.334.392.369.5-.347 1.1-1.344.77.219.49-.669.932-1.678.42.013.492-1.252.548-1.752.006zm1.973-2.483c1.155.089 3.064.26 4.246.425-.075-.383-.279-.493-.92-.664-.69.073-2.441.244-3.326.24z"/><path d="M9.929 9.716c.582.436 1.781-.073 1.509-.685.583.271 1.25-.274 1.1-.51a106.6 106.6 0 0 0-2.69-.493c.17.01.45.029.802.055.885.005 1.7.019 2.39-.055-1.117-.282-2.727-.627-4.303-.729-.073.106.057.036-.177.228-.69 1.451-1.575 2.189-2.957 2.189-.402 0-.89-.964-1.395-1.125-.315.336-1.782 1.403-2.872.87.864 2.015 2.663 3.57 4.881 3.57 1.869 0 2.701-1.798 2.52-2.3-.044-.123-.218-.527-.316-.789.38.55 1.57.267 1.508-.226zm-.892-3.527c.165-.089.601-.452 1.145-.581-.009-.06-.122-.397-.126-.458-.357.085-1.029.371-1.414-.024.813.244 1.072-.136 1.67-.136.355 0 1.009.018 1.41.174-.172-.673-.2-1.329-2.556-1.189-.043.003-.086-.003-.13-.003-.291.352-.366 1.41 0 2.217z"/><path d="M4.073 9.207c-.315.336-1.545 1.116-2.634.583a5.599 5.599 0 0 1-.45-2.216c0-3.365 2.09-5.647 5.104-5.647 1.727 0 2.863 1.056 3.023 1.569-1.042 1.05-.881 2.432-.502 3.033-.54.894-1.136.85-2.369 1.129.611.243 1.86.506 2.369.082-.69 1.452-1.246 2.203-2.628 2.203-.403 0-1.408-.575-1.913-.736Zm.847-4.71a1.6 1.6 0 1 0 3.2 0 1.6 1.6 0 0 0-3.2 0Zm.77-.033a.75.75 0 1 0 1.5 0 .75.75 0 0 0-1.5 0Z" opacity=".8"/><path d="M4.92 4.498a1.6 1.6 0 1 0 3.2 0 1.6 1.6 0 0 0-3.2 0Z"/><path d="M5.69 4.464a.75.75 0 1 0 1.5 0 .75.75 0 0 0-1.5 0Z" opacity=".3"/></g></svg>