<svg xmlns="http://www.w3.org/2000/svg" viewBox="0 0 16 16"><g fill="none" fill-rule="evenodd"><path d="M13.166 10.857a5.902 5.902 0 0 0-9.95-6.314c-.202.28 2.423-.193 3.105.383 1.317 1.112 2.095 4.687 3.133 5.769.692.72 1.93.775 3.712.162Z" fill="#5881D8"/><path d="M8 13.902a5.9 5.9 0 0 0 5.104-2.937c.179-.307-2.131.945-3.553-.3C8.118 9.412 7.567 5.657 6.04 4.833a4.154 4.154 0 0 0-2.703-.45A5.902 5.902 0 0 0 8 13.903Z" fill="#63B132"/><path d="M8 10.951c.551 0 1.067-.151 1.508-.414C8.503 9.497 8 8.652 8 8c0-1.63-1.31-2.647-1.408-2.594A2.95 2.95 0 0 0 8 10.951Z" fill="#91DC47"/><path d="M9.699 10.473a3 3 0 0 0-3.053-5.15C6.585 5.352 7.494 6.486 8 8c.328.98 1.216 2.805 1.699 2.473Z" fill="#90B4FE"/><path d="M5.991 10.067c-.014-.625.46-1.468 1.423-2.529-.155-.966-.55-1.574-.988-1.953a2.88 2.88 0 0 0-.435 4.482Zm1.182.695a2.883 2.883 0 0 0 1.834-.06c-.615-.55-1.126-1.324-1.416-2.341-.505.64-.645 1.44-.418 2.4ZM2.83 5.478a5.75 5.75 0 0 0 9.61 6.174 3.717 3.717 0 0 1-1.887-.074 3.99 3.99 0 0 1-.48-.18 3.98 3.98 0 0 1-4.73-6.362 1.981 1.981 0 0 0-.431-.056c-.338 0-1.39-.127-2.082.498ZM4.127 3.75c.446-.12.883-.057 1.31.187.254.145.511.308.767.51a3.98 3.98 0 0 1 4.777 6.19c.266.023.55.012.851-.033.726-.309 1.286-.63 1.68-.962A5.75 5.75 0 0 0 4.127 3.75ZM7.04 5.282c.517.651 1.009 1.57 1.435 2.943.297.955.742 1.628 1.336 2.018A2.882 2.882 0 0 0 7.04 5.281ZM8 15A7 7 0 1 1 8 1a7 7 0 0 1 0 14Z" fill="#EDF2F7"/></g></svg>