<svg xmlns="http://www.w3.org/2000/svg" viewBox="0 0 16 16"><g fill="none" fill-rule="evenodd"><path d="M8.736.267 14.2 3.399c.494.283.799.81.799 1.38v6.4a1.59 1.59 0 0 1-.792 1.376l-5.465 3.169a1.59 1.59 0 0 1-1.605-.006l-5.356-3.161A1.59 1.59 0 0 1 1 11.187V4.77c0-.565.3-1.088.789-1.373L7.145.273a1.59 1.59 0 0 1 1.59-.006Z" fill="#6390C9"/><path d="M14.82 11.964a1.41 1.41 0 0 1-.527.541L8.628 15.79c-.427.248-.95.246-1.376-.005l-5.554-3.278a1.415 1.415 0 0 1-.572-.644l6.679-3.837 7.015 3.938Z" fill="#275EAA"/><path d="M14.077 3.85c.115.21.923.596.923.846v6.565c0 .25-.064.492-.18.703-.47.335-2.808-.978-7.015-3.938l6.272-4.177Z" fill="#3D74B7"/><path d="M12.165 5.232a5 5 0 1 0-.131 5.723L9.905 9.62a2.5 2.5 0 1 1 .108-3.101l2.152-1.286Z" fill="#FFF"/><path d="m14.297 7.646.092-.784h-.829l-.09.784h-.592l-.043.615h.563l-.084.72h.827l.084-.72h.436l.043-.615h-.407Zm-2 0 .092-.784h-.829l-.09.784h-.592l-.043.615h.563l-.084.72h.827l.084-.72h.436l.043-.615h-.407Z" fill="#FFF"/></g></svg>