<svg xmlns="http://www.w3.org/2000/svg" viewBox="0 0 16 16"><g fill="none" fill-rule="evenodd"><path d="M2 1h12a1 1 0 0 1 1 1v13a1 1 0 0 1-1 1H2a1 1 0 0 1-1-1V2a1 1 0 0 1 1-1Zm1 4v7h1V5H3Zm2 2v3h1V7H5Zm2 1.9v1.15h2V8.9H7ZM5 11v1.15h4V11H5Zm2-4.1v1.15h6V6.9H7Zm-2-2v1.15h5V4.9H5Zm-2-2v1.15h4V2.9H3Zm7 6v1.15h2V8.9h-2Zm-7 4v1.15h3V12.9H3Z" fill="#585E6F" opacity=".4"/><path d="M3 2.9h4v1.15H3V2.9Zm7 6h2v1.15h-2V8.9Zm-7 4h3v1.15H3V12.9Z" fill="#6A7182"/><path d="M7 8.9h2v1.15H7V8.9ZM5 11h4v1.15H5V11Zm2-4.1h6v1.15H7V6.9Zm-2-2h5v1.15H5V4.9Z" fill="#585E6F" opacity=".8"/><path d="M3 5h1v7H3V5Zm2 2h1v3H5V7Z" fill="#585E6F" opacity=".57"/></g></svg>