<svg xmlns="http://www.w3.org/2000/svg" viewBox="0 0 16 16"><path d="M.11 8.019h11.183c.243 0 .563-.08.96-.238-.496-.418-.68-2.45.16-3.061.516 0 1.004.585 1.466 1.754.676-.201 1.383-.171 2.121.09-.226.685-.47 1.18-.73 1.483-.26.303-.832.46-1.715.472-1.508 3.176-4.023 3.934-5.008 4.407-.984.473-2.347.975-4.032.984-1.684.009-2.902-1.072-3.825-2.306-.616-.822-.81-2.017-.58-3.585Zm3.67-4.21h1.44v1.44H3.78V3.81Zm0 2h1.44v1.44H3.78V5.81Zm-2 0h1.44v1.44H1.78V5.81Zm4 0h1.44v1.44H5.78V5.81Zm0-2h1.44v1.44H5.78V3.81Zm2 0h1.44v1.44H7.78V3.81Zm0 2h1.44v1.44H7.78V5.81Zm2 0h1.44v1.44H9.78V5.81Zm-2-4h1.44v1.44H7.78V1.81Z" fill="#585E6F" fill-rule="evenodd"/></svg>