<svg xmlns="http://www.w3.org/2000/svg" viewBox="0 0 16 16"><g fill="#585E6F" fill-rule="evenodd"><path d="M8.832 15.03H8.76a14.904 14.904 0 0 1-.362-1.991l.06-.006c.066.689.19 1.355.375 1.997Zm.52-.003a10.552 10.552 0 0 1-.399-2.056c1.468-.23 2.522-.813 3.144-1.766a.375.375 0 1 0-.628-.41c-.484.741-1.332 1.22-2.562 1.424A13.74 13.74 0 0 1 9.1 9.556l.048-.291H6.73C6.66 6.159 7.452 3.742 9.103 2H14a1 1 0 0 1 1 1v11.005a1 1 0 0 1-.995 1l-4.652.022ZM8.433 2c-1.58 1.862-2.31 4.374-2.194 7.524l.008.24h2.315a13.9 13.9 0 0 0-.152 2.52 8.673 8.673 0 0 1-.073.008 12.315 12.315 0 0 1 .084-2.276l-2.264-.02C6.156 6 6.911 3.335 8.42 2h.011ZM11.5 5a.5.5 0 0 0-.5.5v1a.5.5 0 1 0 1 0v-1a.5.5 0 0 0-.5-.5Z"/><path d="M8.431 2c-1.58 1.862-2.31 4.374-2.193 7.524l.008.24h2.315a13.9 13.9 0 0 0-.152 2.52c-.317.032-.656.048-1.017.048-2.07 0-3.416-.523-4.078-1.537a.375.375 0 1 0-.628.41c.824 1.262 2.407 1.877 4.706 1.877.374 0 .729-.016 1.065-.049.065.678.187 1.334.367 1.967H0V2h8.431ZM3.5 5a.5.5 0 0 0-.5.5v1a.5.5 0 0 0 1 0v-1a.5.5 0 0 0-.5-.5Z" opacity=".9"/></g></svg>