<svg xmlns="http://www.w3.org/2000/svg" xmlns:xlink="http://www.w3.org/1999/xlink" viewBox="0 0 16 16"><defs><path d="M1 2h13a1 1 0 0 1 1 1v11a1 1 0 0 1-1 1H1a1 1 0 0 1-1-1V3a1 1 0 0 1 1-1Z" id="a"/></defs><g fill="none" fill-rule="evenodd"><mask fill="#fff" id="b"><use xlink:href="#a"/></mask><use xlink:href="#a" fill="#F1F4F7"/><path d="M0 2h8.726C7.432 3.87 6.69 6.335 6.497 9.394l2.414.086c-.192 1.56-.12 3.4.216 5.52H0V2Z" fill="#4BA8F1" mask="url(#b)"/><path d="M3 11c.743 1.138 2.207 1.707 4.392 1.707 2.184 0 3.648-.569 4.391-1.707" stroke="#2B3E47" stroke-linecap="round" stroke-width=".75" mask="url(#b)"/><path d="M3.5 5a.5.5 0 0 1 .5.5v1a.5.5 0 0 1-1 0v-1a.5.5 0 0 1 .5-.5Zm8 0a.5.5 0 0 1 .5.5v1a.5.5 0 1 1-1 0v-1a.5.5 0 0 1 .5-.5Z" fill="#0A1F28" mask="url(#b)"/><path d="M9.074 1.672C7.225 3.52 6.364 6.135 6.487 9.515h2.366c-.453 2.72-.143 5.14.93 7.255" stroke="#24303F" stroke-width=".5" mask="url(#b)"/></g></svg>