<svg xmlns="http://www.w3.org/2000/svg" viewBox="0 0 16 16"><g fill="none" fill-rule="evenodd"><path d="M3.827 3.83c.12-1.78.715-2.7 1.737-3.288C6.587-.047 8.28-.104 8.821.138c.543.242.55 1.07.502 1.678-.031.405-.198.92-.502 1.543l1.499.47c.654.206 1.005.563 1.052 1.072.47-.396 1.942-.82 2.508-.846.565-.027 1.283.003 1.794 1.164.51 1.16.026 2.873 0 2.906-.545.692-1.36 1.166-2.447 1.423.073.185.271.361.594.528.485.251-.189.563-.377.646-.189.083-.215-.117-.108-.175.108-.058-.357-.728-.659-.832a4.155 4.155 0 0 0-.823-.167c.09.828-1.495 2.207-1.712 2.436-.216.23-1.606 1.073-2.176 1.44-.571.369-1.322.572-2.327.95-1.005.38-3.353.322-3.756.322-.403 0-1.592-.552-1.691-1.271-.164-1.35.29-3.116 1.36-5.3-.4-.56-.44-1.449-.345-1.972.063-.349.624-.57 1.684-.661.219-.636.264-.478.936-1.662ZM2.083 7.662l.43-.941c.105-.218.105-.323 0-.315-.159.012-.43.169-.557.444-.085.184-.043.455.127.812Zm-.627 5.167c-.176.45.063.72.718.81.982.133 3.84-.092 4.316-.503.475-.411 1.58-.838 2.09-1.092.512-.255 2.105-1.27 2.394-2.007.193-.491.289-.799.289-.922l-.714-.226c.079.407-.02.72-.294.938-.412.328-2 .39-2.558.37-.557-.02-1.52-.455-1.508-1.988-.196-.128-.33-.182-.403-.161-.11.031-.695.805-1.878.569-.788-.157-1.322-.266-1.6-.325-.654 2.027-.981 3.311-.981 3.852.617.068 1.097.199 1.438.393.513.292.344.599.247.599-.097 0-.468.272-.838.136a2.284 2.284 0 0 1-.718-.443ZM4.082 8.28h.546c.363-.083.489-.163.577-.514.088-.352-.315-.46-.577-.6-.261-.139-1.309-.486-1.422-.4-.075.057-.27.444-.586 1.16.069.183.556.301 1.462.354Zm2.897-.156c-.244.394-.29.714-.14.96.227.37.36.341.69.465.331.124.475.227 1.29.157.814-.07.942-.14 1.01-.242.068-.103.332-.553 0-.703-.333-.151-1.063-.665-1.453-.714-.26-.032-.726-.007-1.397.077ZM3.293 6.167c.436-.898.742-1.468.918-1.71.265-.365 1.151-.72 1.687-.722.535-.002 2.586.253 3.028.41.442.158 1.767.78 2.052 2.208.286 1.427.232 1.44.286 1.647.035.138.053.438.053.902-.405-.128-.66-.212-.762-.252-.155-.06-.814-.683-2.061-.883-1.248-.201-1.916-.005-2.085.114-.113.08-.162.119-.147.119-.218-.098-.363-.151-.433-.16a.493.493 0 0 0-.041-.405c-.11-.216-.941-.538-.992-.572-.05-.035-1.281-.587-1.589-.6l.086-.096Zm8.196.42c.24 1.156.286 1.92.138 2.294.567.114.962.142 1.184.085.333-.085 2.196-.962 2.519-1.789.323-.826.393-.934.323-1.164-.07-.23-.534-.919-1.227-1.049-.693-.13-1.13-.212-1.473 0-.343.213-1.478.706-1.557.877-.08.172.093.338.093.292 0-.046.659-.48.942-.595.284-.115.749-.331 1.249-.345.5-.013 1.201.143 1.346.244.146.1-.07 0-1.21 0-.758 0-1.534.383-2.327 1.15Z" fill="#2E2E2E"/><path d="M4.847 7.475c.05.039.076.097.08.173.004.115-.138.386-.223.524-.084.138-.152 0-.143-.234.007-.155.102-.31.286-.463Zm3.398.958a.408.408 0 0 1 .066.289c-.017.171-.216.182-.333.268-.117.087-.05-.123-.025-.266.016-.095.114-.192.292-.29Z" fill="#CADDF1"/><path d="M4.082 8.281c-.906-.053-1.393-.17-1.462-.353.316-.717.511-1.104.586-1.161.113-.086 1.16.261 1.422.4.262.14.665.248.577.6-.088.351-.214.43-.577.514h-.546zm2.946.074c-.277.24-.34.484-.188.73.226.37.358.341.69.465.33.124.474.227 1.288.157.815-.07.943-.14 1.01-.242.069-.103.333-.553 0-.703a6.675 6.675 0 0 0-1.452-.407c-.26-.033-.71-.033-1.348 0z" fill="#EDF2F7"/><path d="M1.456 12.829c.232.204.471.352.718.443.37.136.74-.136.838-.136.097 0 .266-.307-.247-.599-.341-.194-.82-.325-1.438-.393 0-.54.327-1.825.981-3.852.169.3.647.528 1.436.685 1.182.236 1.775-.638 1.885-.669.073-.02.197.033.371.16-.011 1.534 1.443 2.02 2 2.039.557.02 1.843-.352 2.255-.68.275-.218.373-.368.296-.451l.713.226c0-.201-.097-.056-.29.435-.289.738-1.882 1.752-2.393 2.007-.51.254-1.616.68-2.091 1.092-.475.41-3.334.636-4.316.502-.655-.089-.894-.359-.718-.81Zm1.837-6.662c.436-.898.742-1.468.918-1.71.265-.365 1.151-.72 1.687-.722.535-.002 2.586.253 3.028.41.442.158 1.767.78 2.052 2.208.286 1.427.232 1.44.286 1.647.035.138.053.438.053.902-.405-.128-.66-.212-.762-.252-.155-.06-.727-.883-1.974-1.084-1.248-.2-1.887.105-2.034.175-.097.046-.146.086-.146.12-.219-.099-.363-.152-.434-.161.095-.15.107-.298.033-.442-.11-.215-.978-.658-1.028-.692-.051-.034-1.457-.29-1.765-.303l.086-.096Z" fill="#EDF2F7"/><path d="M4.062 7.951c-.146-.097-.01-.465.146-.66.156-.196.181-.312.417-.288.236.025.507.245.304.473-.136.151-.268.31-.398.475-.215.065-.371.065-.469 0ZM8 9.053c-.146-.098-.156-.2 0-.395s.092-.358.327-.333c.236.024.507.245.304.472l-.304.337A.493.493 0 0 1 8 9.053Z" stroke="#000" stroke-width=".5"/><path d="M5.036 3.467c.119-.635.395-1.156.829-1.562.65-.61.954-.741 1.048-.89.095-.15.69-.165.98-.15.291.016.515.382.425.775-.06.262-.244.591-.554.987-.135.254-.168.401-.1.44.1.058.454-.172.654-.667.2-.495.53-1.761-.3-1.858-.553-.065-1.033.043-1.44.323-.536.451-.874.798-1.014 1.04-.21.362-.775 1.298-.789 1.49-.013.19-.122-.151-.013-.46.108-.308.548-1.294.737-1.492.189-.199.917-.727.998-.814.08-.087.775-.393 1.267-.34.492.053 1.029.62 1.02.82-.01.2-.151 1.201-.395 1.58-.245.378-.46.705-.625.705-.165 0-.844.146-1.015.073-.171-.073-.95-.145-1.185-.073a1.783 1.783 0 0 1-.528.073Zm6.646 3.152a2.886 2.886 0 0 1 1.998-.778c1.138 0 .992-.066 1.05.172.057.239.156.253.216.12s.226-.595.08-.696c-.145-.101-.847-.257-1.346-.244-.5.014-.965.23-1.249.345-.283.114-.942.549-.942.595 0 .046-.173-.12-.093-.292.08-.171 1.214-.664 1.557-.877.343-.212.78-.13 1.473 0 .693.13 1.157.82 1.227 1.05.07.229-.384.313-.707 1.14-.323.826-1.79 1.39-2.123 1.476-.222.057-.502.121-.84.193.149-.373.048-1.108-.301-2.204Z" fill="#FBDBDB"/></g></svg>