<svg xmlns="http://www.w3.org/2000/svg" viewBox="0 0 16 16"><path d="m.374 2.986 7-1.823A.5.5 0 0 1 8 1.647v12.706a.5.5 0 0 1-.626.484l-7-1.823A.5.5 0 0 1 0 12.53V3.47a.5.5 0 0 1 .374-.484zm3.641 4.222 1.17-2.253h1.477L4.812 8.03 6.757 11h-1.46L4.015 8.752 2.744 11H1.272l2.1-2.969-1.945-3.076h1.46l1.128 2.253zM9 3h5v10H9V3zm0 1v1.842h1.158V4H9zm0 3v1.842h1.158V7H9zm2-3v1.842h2.072V4H11zm0 3v1.842h2.072V7H11zm-2 3v1.842h1.158V10H9zm2 0v1.842h2.072V10H11z" fill="#5A5F6F" fill-rule="evenodd" opacity=".6"/></svg>