<svg xmlns="http://www.w3.org/2000/svg" viewBox="0 0 16 16"><g fill="none" fill-rule="evenodd"><path d="m.374 2.986 7-1.823A.5.5 0 0 1 8 1.647v12.706a.5.5 0 0 1-.626.484l-7-1.823A.5.5 0 0 1 0 12.53V3.47a.5.5 0 0 1 .374-.484Z" fill="#44B05D"/><path d="m4.015 7.208 1.17-2.253h1.477L4.811 8.031 6.758 11H5.297L4.015 8.752 2.744 11H1.272l2.1-2.969-1.945-3.076h1.461z" fill="#FFF"/><path d="M9 3h5v10H9z" fill="#44B05D"/><path d="M9 4h1.047v1.933H9V4Zm0 3h1.047v1.933H9V7Zm2-3h1.986v1.933H11V4Zm0 3h1.986v1.933H11V7Zm-2 3h1.047v1.933H9V10Zm2 0h1.986v1.933H11V10Z" fill="#FFF"/></g></svg>