<svg xmlns="http://www.w3.org/2000/svg" viewBox="0 0 16 16"><path d="m8.25 5.825.021-.016 1.748 1.45a1.5 1.5 0 1 0 .576-.955L8.932 4.917A1.35 1.35 0 0 0 9 4.5 1.5 1.5 0 0 0 7.5 3c-.221 0-.453.061-.673.167L5.302 1.898l-.807.781L5.97 3.903a1.424 1.424 0 0 0-.267.785c0 .63.461 1.144 1.046 1.355v3.158a1.5 1.5 0 1 0 1.5 0V5.825ZM8.318.28l6.559 6.618a1 1 0 0 1-.01 1.417L8.31 14.77a1 1 0 0 1-1.396.008L.22 8.322A1 1 0 0 1 .21 6.89L6.906.272A1 1 0 0 1 8.318.28Z" fill="#585E6F" fill-rule="evenodd"/></svg>