<svg xmlns="http://www.w3.org/2000/svg" viewBox="0 0 16 16"><g fill="none" fill-rule="evenodd"><path d="M8.158 15.975c2.841 0 5.145-.841 5.145-1.879 0-1.037-2.304-2.102-5.145-2.102-2.841 0-5.144 1.065-5.144 2.102 0 1.038 2.303 1.88 5.144 1.88Z" fill="#A4DCF0"/><path d="M8.044 4.04c.854-.006 1.47-.041 1.85-.105 1.201-.079 1.926.647 2.176 2.178 0 2.347-1.472 2.892-4.068 2.892-2.595 0-4.067-.918-4.067-2.763 0-1.845 1.336-2.249 1.648-2.307.31-.058 1.18.114 2.461.105Z" fill="#F4CAB1"/><path d="M6.019 8.09c-.553 0-1-.671-1-1.5 0-.828.447-1.5 1-1.5.552 0 1.094.672 1.094 1.5 0 .829-.542 1.5-1.094 1.5Zm3.952-.086c-.553 0-1-.672-1-1.5s.447-1.5 1-1.5c.552 0 1.115.672 1.115 1.5s-.563 1.5-1.115 1.5Z" fill="#FFF"/><path d="M5.975 7.34c-.277 0-.487-.316-.487-.804 0-.488.21-.803.487-.803.276 0 .513.315.513.803 0 .488-.237.803-.513.803Zm4.002 0c-.276 0-.487-.316-.487-.804 0-.488.21-.803.487-.803.276 0 .513.315.513.803 0 .488-.237.803-.513.803Z" fill="#AC5C51"/><path d="M3.075.042c-.3.815-.3 1.57 0 2.266-1.042.842-1.48 1.943-1.31 3.303C2.02 7.65 3.54 9.942 7.76 9.942c4.222 0 6.004-2.266 5.96-4.595-.044-2.329-1.2-2.798-1.34-3.039.479-1.19.582-1.946.31-2.266-.482.125-1.2.51-2.156 1.155C9.527.925 8.666.797 7.952.816c-.715.018-1.489.145-2.322.381C4.96.512 4.11.127 3.075.042ZM5.46 11.295c.011.773.01 1.405 0 1.895-.015.365-.19.613-.525.745-.224.051-.265.154-.121.307.164.085.417.077.758-.025.512-.154.739-.437.739-1.236v-1.526a17.2 17.2 0 0 1 .834-.63v3.581c-.049.216-.138.364-.267.446-.195.122-.15.202-.128.252.02.05.238.223.395.145.157-.079.945-.103.945-1.07v-3.386l.192-.182c0-.087.023-.13.115-.13.093 0 .246.043.246.13l-.022.001v3.567c0 .967.787.991.945 1.07.157.078.374-.095.395-.145.021-.05.067-.13-.128-.252-.13-.082-.219-.23-.267-.446v-1.393c.029.68.258.936.735 1.079.341.102.594.11.758.025.144-.153.104-.255-.121-.307-.335-.132-.51-.38-.524-.745a54.287 54.287 0 0 1 0-1.956c.007-.537-.193-.871-.6-1.003l.04-.064H6.942c-.374 0-.678.054-.91.165l.035-.282c-.338.183-.72.275-1.143.276-.635.002-1.233-.219-1.778-.818-.545-.599-1.388-.244-1.401-.157-.013.087-.052.174.084.24s.84.606 1.107 1.103c.268.497 1.008.756 1.988.756.212 0 .391-.01.536-.03Zm2.356-7.068c1.253 0 1.768-.035 1.546-.105 1.419-.312 2.253.297 2.502 1.828 0 2.347-1.513 2.895-4.109 2.895S3.73 7.925 3.73 6.08c0-1.845 1.313-1.9 1.624-1.957.311-.058.583.105 2.462.105Z" fill="#41505E"/><path d="M7.967 7.753c.138 0 .35-.25.35-.388 0-.137-.223-.364-.36-.364-.137 0-.34.227-.34.364 0 .138.213.388.35.388Z" fill="#AC5C51"/><path d="M3 6.987c-.653 0-2.347.145-2.945.335l.231.446c.586-.187 2.157-.318 2.798-.318L3 6.987Z" fill="#201F1F" fill-rule="nonzero"/><path d="M6.97 8.105c.126.584.484.957 1.03.957.499 0 .885-.312 1.144-.842l-.898-.44c-.107.22-.184.282-.246.282-.015 0-.017-.002-.052-.167l-.978.21Z" fill="#AC5C51" fill-rule="nonzero"/><path d="M16 6.987c-.653 0-2.347.145-2.945.335l.231.446c.586-.187 2.157-.318 2.798-.318L16 6.987Z" fill="#201F1F" fill-rule="nonzero"/></g></svg>