<svg xmlns="http://www.w3.org/2000/svg" xmlns:xlink="http://www.w3.org/1999/xlink" viewBox="0 0 16 16"><defs><circle id="a" cx="2.051" cy="2.326" r="1.8"/><circle id="b" cx="2.051" cy="2.226" r="2"/><path d="M.713.533v.984c.11.88.363 1.32.762 1.324.4.003.712-.243.937-.74.125.493.382.74.77.74.582 0 .781-.368.781-.74V.254C3.553.104 3.036.03 2.412.03c-.625 0-1.19.168-1.699.504Z" id="c"/><path d="M8.361 7.302c-.593.293-.878.616-.854.97.037.53.27.639.626.718.357.08.63-.356 1.132-.354.502.003.85.283 1.096.283.244 0 .655-.101.722-.523.067-.422-.75-1.044-.882-1.094-.088-.033-.701-.033-1.84 0Z" id="d"/></defs><g fill="none" fill-rule="evenodd" transform="translate(-1 1)"><path d="M14.266 3.69c.448-.335.731-.306.85.084.177.585-.15.826-.398.964l-.452-1.049Z" fill="#000"/><path d="M3.042 6.837C1.727 6.057.734 4.765 1.247 3.266c.373-1.088 1.146-1.714 2.098-1.778.705-.047.767-.135 1.54.422-.98.872-1.595 2.515-1.843 4.927ZM14.65 7c1.314-.78 2.61-2.235 2.097-3.734-.373-1.088-1.146-1.714-2.098-1.778-.705-.047-1.135-.247-1.908.31C14.013 3.46 14.65 5.193 14.65 7Z" fill="#69D7E6" fill-rule="nonzero"/><path d="M3.734 3.935c-.448-.334-.731-.305-.85.085-.177.585.15.826.398.964l.452-1.049Z" fill="#000"/><path d="M14.08 13a187.11 187.11 0 0 0-.085-4.13c-.049-1.329.584-7.997-4.844-7.865C5.76.999 4.061 2.836 4.054 6.517V13h10.025Z" fill="#67D7E6"/><g transform="translate(4.549 2.674)"><use xlink:href="#a" fill="#FFF"/><circle cx="2.051" cy="2.326" r="2.05" stroke="#000" stroke-width=".5"/><circle fill="#000" cx="2.01" cy="2.657" r="1"/></g><g transform="translate(9.549 2.674)"><use xlink:href="#b" fill="#FFF"/><circle cx="2.051" cy="2.226" r="2.25" stroke="#000" stroke-width=".5"/><circle fill="#000" cx="2.01" cy="2.657" r="1"/></g><g transform="translate(7.087 8.682)"><use xlink:href="#c" fill="#FFF"/><path d="M2.371 2.648c-.238.293-.54.446-.898.443-.57-.005-.885-.553-1.01-1.574V.4L.575.325a3.263 3.263 0 0 1 1.837-.546c.651 0 1.197.08 1.637.24l.164.06v2.022c0 .575-.367.99-1.031.99a.919.919 0 0 1-.81-.443zM2.353.03c-.124 1.4-.166 2.36-.124 2.88" stroke="#000" stroke-width=".5"/></g><use xlink:href="#d" fill="#F6D49F"/><path d="M8.35 6.927c1.283-.037 1.82-.037 1.983.024.44.166 1.21.944 1.12 1.504-.091.574-.572.84-1.092.84a.966.966 0 0 1-.33-.066c-.06-.022-.285-.112-.26-.102a1.36 1.36 0 0 0-.508-.116c-.116 0-.215.035-.393.135-.245.136-.23.128-.328.166a.829.829 0 0 1-.49.044c-.585-.13-.874-.408-.919-1.059-.037-.542.347-.979 1.063-1.331l.154-.039Z" stroke="#000" stroke-width=".75"/><path d="M9.728 7.795c.708 0 1.359-.402 1.359-.81 0-.408-.651-.667-1.359-.667-.707 0-1.527.344-1.527.752 0 .408.82.725 1.527.725Z" fill="#000"/></g></svg>