<svg xmlns="http://www.w3.org/2000/svg" viewBox="0 0 16 16"><path d="M8.667 2.015H3.5a.5.5 0 0 0 0 .999h9.002a.5.5 0 1 0 0-.999H10.54L12.167 0h-1.565L8.667 2.015ZM4.157 3.95h7.695a1 1 0 0 1 .99 1.137l-1.273 9.189A2 2 0 0 1 9.59 16h-3.1a2 2 0 0 1-1.98-1.711L3.167 5.094a1 1 0 0 1 .99-1.145Zm6.616 2.882c.265-.157.268-1.225-1.382-1.887-1.093-.282-3.128 1.71-3.708 3.689-.579 1.977-.446 3.194.533 3.502.653.205 1.388-.173 2.206-1.136l-.652 1.9c-.128.373.06.78.428.924a.628.628 0 0 0 .836-.426l1.154-4.412a.547.547 0 0 0-.46-.681.811.811 0 0 0-.854.501l-.353.873c-.786 1.07-1.352 1.495-1.698 1.275-.52-.329-.036-1.843.412-2.867.448-1.025 1.942-2.407 2.346-1.816.423.81.926.717 1.192.56Z" fill="#585E6F" fill-rule="evenodd"/></svg>