<svg xmlns="http://www.w3.org/2000/svg" viewBox="0 0 16 16"><g fill="none" fill-rule="evenodd"><path d="m2.167.807 3.051 6.599-2.07 7.387c.331.531.819.832 1.463.902.644.07 1.208.07 1.692 0L7.6 7.987l5.972-4.955c-.649-.834-1.3-1.218-1.951-1.154L6.83 5.92 4.062.3c-.39-.163-.758-.163-1.103 0-.345.164-.61.333-.792.507Z" fill="#ECE2A9"/><path d="M10.868 10.316c-.284.117-.439.313-.462.586a1.86 1.86 0 0 1-.186.7c.424.247.82.309 1.187.185.551-.186 1.226-.44 1.236-.572.007-.088.01-.535.01-1.341-.407.62-.717.884-.929.793a46.35 46.35 0 0 0-.856-.351Z" fill="#EDF2F7"/><path d="m7.458 10.018-.801 5.804c-.577.186-1.416.236-2.018.178-.602-.058-1.704-.56-2.137-1.154l2.313-7.044C3.777 4.955 3.062 3.098 2.672 2.23c-.023-.053-.434.137-.457.085-.016-.035-.224-.586-.195-.848.012-.116.314.011.286-.052A74.94 74.94 0 0 1 2.02.779c.092-.2.325-.372.697-.513C3.09.124 3.59.089 4.213.16l.485 1.009c.028.059.194-.003.224.06.021.044.12.162.11.238-.012.08-.134.117-.11.167.3.626.92 1.911 1.855 3.856l-.056.05.088.018.104.216.177-.156.088.018-.032-.067c1.8-1.536 2.852-2.446 3.155-2.73.031-.028-.14-.183-.114-.207.136-.126.253-.232.35-.317.037-.033.144.135.18.103l.934-.823c.674.121 1.359.563 2.055 1.324a16.209 16.209 0 0 1-1.035.957l.15.11-.514.606-.222-.204L10.89 5.43c-.326.884-.087 1.51.718 1.877 1.282.584 2.7 1.434 2.168 2.265-.356.554-.675.96-.957 1.219v.426c-.398.519-.841.779-1.329.78a2.612 2.612 0 0 1-1.39-.4v-.38c0-.122-1.887-.613-2.642-1.199Zm.15-1.09c1.217.982 2.182 1.48 2.894 1.496.108-.189.233-.328.373-.419.21-.135.43.456.834.398.269-.039.663-.368 1.181-.987v.795c.306-.39.456-.698.452-.922-.006-.338-.939-.86-1.628-1.104-.674-.239-1.94-.565-1.636-2.05-.706.613-1.495 1.296-2.367 2.05l-.102.742ZM3.81 1.83c.683.943.928 2.242.736 3.899l-.124-.37c.111-.902-.226-2.031-1.012-3.386l-.432.154c.905 2.18 1.624 3.803 2.156 4.87.05.1.18.143.389.129l-2.235 7.425c.364.453.876.748 1.352.794.51.049 1.019.055 1.529.019.31-2.116.513-3.562.609-4.337.01-.088-.601-2.013-.591-2.096.015-.12.646 1.349.66 1.238.054-.44.233-1.23.536-2.368 1.71-1.474 3.16-2.721 4.348-3.74L10.9 3.3 6.81 6.134c-.37.282-.564.404-.583.366-.02-.04.444-.648.43-.677l-2.09-4.262-.758.27Zm-1.128-.418L4.276.971 4.021.45c-.507-.044-.685.027-.979.139-.22.083-.471.257-.559.342l.198.482Zm9.6 2.177.295-.252c.014-.012.54.003.62 0 .108-.004.243-.27.274-.296.02-.017-.047-.065-.2-.143-.53-.526-.602-.357-1.096-.48l-.768.53.875.641Zm-1.29 6.914c-.297.304-.46.602-.49.894-.028.292.437.36 1.397.204.422-.183.647-.352.678-.508.03-.157.03-.38 0-.67-.347.275-.645.386-.896.335a2.348 2.348 0 0 1-.688-.255Z" fill="#C49C2E" fill-rule="nonzero"/></g></svg>