<svg xmlns="http://www.w3.org/2000/svg" viewBox="0 0 16 16"><g fill="#5A5F6F" fill-rule="evenodd"><path d="m2.167.807 3.051 6.599-2.07 7.387c.331.531.819.832 1.463.902.644.07 1.208.07 1.692 0L7.6 7.987l5.972-4.955c-.649-.834-1.3-1.218-1.951-1.154L6.83 5.92 4.062.3c-.39-.163-.758-.163-1.103 0-.345.164-.61.333-.792.507Z" opacity=".3"/><path d="m7.458 10.018-.801 5.804c-.577.186-1.416.236-2.018.178-.602-.058-1.704-.56-2.137-1.154l2.313-7.044C3.777 4.955 3.062 3.098 2.672 2.23c-.023-.053-.434.137-.457.085-.016-.035-.224-.586-.195-.848.012-.116.314.011.286-.052A74.94 74.94 0 0 1 2.02.779c.092-.2.325-.372.697-.513C3.09.124 3.59.089 4.213.16l.485 1.009c.028.059.194-.003.224.06.021.044.12.162.11.238-.012.08-.134.117-.11.167.3.626.92 1.911 1.855 3.856l-.056.05.088.018.104.216.177-.156.088.018-.032-.067c1.8-1.536 2.852-2.446 3.155-2.73.031-.028-.14-.183-.114-.207.136-.126.253-.232.35-.317.037-.033.144.135.18.103l.934-.823c.674.121 1.359.563 2.055 1.324a16.209 16.209 0 0 1-1.035.957l.15.11-.514.606-.222-.204L10.89 5.43c-.326.884-.087 1.51.718 1.877 1.282.584 2.7 1.434 2.168 2.265-.356.554-.675.96-.957 1.219v.426c-.398.519-.841.779-1.329.78a2.612 2.612 0 0 1-1.39-.4v-.38c0-.122-1.887-.613-2.642-1.199Zm.15-1.09c1.217.982 2.182 1.48 2.894 1.496.108-.189.233-.328.373-.419.21-.135.43.456.834.398.269-.039.663-.368 1.181-.987v.795c.306-.39.456-.698.452-.922-.006-.338-.939-.86-1.628-1.104-.674-.239-1.94-.565-1.636-2.05-.706.613-1.495 1.296-2.367 2.05l-.102.742Zm3.384 1.576c-.298.304-.462.602-.49.894-.03.292.436.36 1.396.204.422-.183.647-.352.678-.508.03-.157.03-.38 0-.67-.347.275-.645.386-.896.335a2.348 2.348 0 0 1-.688-.255Z" fill-rule="nonzero"/></g></svg>