<svg xmlns="http://www.w3.org/2000/svg" viewBox="0 0 16 16"><path d="M7.018 6.935c.58-.244.907-.556.982-.935.064.278.404.613 1.018 1.006l-.016 7.996a1 1 0 0 1-1 .998H8a.998.998 0 0 1-.998-1l.016-8.065ZM2.896 3.899C4.63 3.441 5.931.984 8.017.984c2.086 0 3.834 2.454 5.151 3.004.935.367.992.072 1.205-.554-.02-.564-.148-.889-.383-.974-.235-.084-.77 1.229-1.104.106.124-1.327.75-1.582 1.398-1.582.973 0 1.716.484 1.716 2.102 0 1.618-.606 2.906-2.996 2.893-1.931-.015-3.472-1.009-4.97-1.014-1.5-.005-2.971.998-4.942 1.014C.702 5.992 0 5.06 0 3.441 0 1.823.851 1 1.824 1c.47 0 .846.286 1.059.873.08.222.138.488.169.797-.273.84-1.01-.22-1.246-.135-.235.084-.272.506-.146 1.004.213.627.714.566 1.236.361Z" fill="#685A4B" fill-rule="evenodd"/></svg>