<svg xmlns="http://www.w3.org/2000/svg" viewBox="0 0 16 16"><g fill="none" fill-rule="evenodd"><path d="M.375 2.012h2.074a.15.15 0 0 1 .125.067l3.56 5.34a.15.15 0 0 1 0 .167l-3.56 5.344a.15.15 0 0 1-.125.067H.29a.15.15 0 0 1-.123-.235L3.71 7.586a.15.15 0 0 0 0-.168L.25 2.245a.15.15 0 0 1 .125-.233Z" fill="#AD1F00"/><path d="m4.436 2.015 2.049-.003a.15.15 0 0 1 .124.066l7.24 10.685a.15.15 0 0 1-.124.234h-2.19a.15.15 0 0 1-.126-.067L9.161 9.512a.15.15 0 0 0-.25-.001l-2.302 3.42a.15.15 0 0 1-.124.066L4.35 13a.15.15 0 0 1-.124-.235L7.772 7.59a.15.15 0 0 0 .001-.168L4.311 2.248a.15.15 0 0 1 .125-.233Z" fill="#FF6C00"/><path d="M10.231 5.079H16v1.876h-4.607zm1.819 2.9H16v1.936h-2.67z" fill="#FFC509"/></g></svg>