<svg xmlns="http://www.w3.org/2000/svg" viewBox="0 0 16 16"><path d="M12.458 14.962H2.537c-.85 0-1.537-.638-1.537-1.426V1.426C1 .64 1.688 0 2.536 0h9.922c.848 0 1.536.639 1.536 1.427v12.109c0 .788-.688 1.426-1.536 1.426ZM9.143 6.98v5.925l1.864-.024V6.976c0-3.479-5.074-1.477-5.074-1.477l.01-3.39-1.925.012s-.05 5.407-.04 5.38c5.541-2.138 5.165-.522 5.165-.522Zm-.978-3.05h1.921c1.043-1.337 1.482-1.808 1.482-1.808H9.582s-.725.97-1.417 1.808Zm-4.094 9.18 1.967-2.12-1.999-1.957.032 4.077Z" fill="#5A5F6F"/></svg>