<svg xmlns="http://www.w3.org/2000/svg" viewBox="0 0 16 16"><g fill="none"><path d="M12.458 14.962H2.537c-.85 0-1.537-.638-1.537-1.426V1.426C1 .64 1.688 0 2.536 0h9.922c.848 0 1.536.639 1.536 1.427v12.109c0 .788-.688 1.426-1.536 1.426Z" fill="#6A48BC"/><path d="M9.143 6.979s.376-1.616-5.166.521c-.01.028.04-5.379.04-5.379l1.926-.011-.01 3.389s5.074-2.002 5.074 1.477v5.904l-1.864.024V6.979Zm-.978-3.05a55.592 55.592 0 0 0 1.417-1.808h1.986s-.44.471-1.482 1.808h-1.92Zm-4.094 9.18L4.04 9.032l1.999 1.957-1.967 2.12Z" fill="#EDF2F7"/></g></svg>