<svg xmlns="http://www.w3.org/2000/svg" viewBox="0 0 16 16"><g fill="none"><path d="M.583 1.615H13.4v12.768H.583z" fill="#242539"/><path d="M1.159 2.158H12.79v11.668H1.16V2.158ZM.5 15h13a.5.5 0 0 0 .5-.5v-13a.5.5 0 0 0-.5-.5H.5a.5.5 0 0 0-.5.5v13a.5.5 0 0 0 .5.5Zm8.536-8.866c0-.051.02-.077.075-.077h.98c.05 0 .075.02.075.077v5.044c0 .05-.012.076-.075.076h-.967c-.063 0-.081-.032-.081-.083V6.134h-.007Zm-.068-1.451c0-.41.28-.652.637-.652.38 0 .636.262.636.652 0 .422-.268.652-.649.652-.362 0-.624-.23-.624-.652Zm-3.552.55h-.013c-.13.747-.462 2.013-.724 3.004h1.48c-.175-.71-.587-2.257-.743-3.005ZM3.93 11.19c-.012.051-.031.064-.094.064H2.92c-.063 0-.075-.019-.063-.096L4.63 4.804c.031-.115.05-.217.063-.53 0-.045.018-.064.05-.064h1.31c.044 0 .063.012.075.064l1.986 6.897c.012.051 0 .083-.05.083H7.026c-.05 0-.08-.013-.093-.057L6.42 9.273H4.423L3.93 11.19Z" fill="#F98E38"/></g></svg>