<svg xmlns="http://www.w3.org/2000/svg" viewBox="0 0 16 16"><defs><linearGradient id="a" x1="50%" x2="50%" y1="0%" y2="100%"><stop offset="0%" stop-color="#585E6F"/><stop offset="100%" stop-color="#585E6F" stop-opacity=".79"/></linearGradient><linearGradient id="b" x1="50%" x2="50%" y1="0%" y2="100%"><stop offset="0%" stop-color="#777D8C" stop-opacity=".7"/><stop offset="100%" stop-color="#808593"/></linearGradient></defs><g fill="none" fill-rule="evenodd"><rect width="15" height="14" x=".5" y=".5" stroke="url(#a)" rx="1"/><path d="M1 1h14v4l-3.041.084v1.011h-1.895v2.91H8.982V5.084H5.055V7h-1.02L4 6l-3 .095z" fill="url(#b)"/><g opacity=".8"><path d="M1.5 6h2a.5.5 0 0 1 .5.5v.525h-.975V14H1V6.5a.5.5 0 0 1 .5-.5Z" fill="#525968" opacity=".9"/></g><g opacity=".9"><path d="M8.5 9h1a.5.5 0 0 1 .5.5V14H8V9.5a.5.5 0 0 1 .5-.5Z" fill="#525968"/><path d="M5.5 5h3a.5.5 0 0 1 .5.5v3.532H8V7.064H5V5.5a.5.5 0 0 1 .5-.5zm6.982 0H14.5a.5.5 0 0 1 .5.5V14h-2l-.077-7.985h-.96l.02-.533a.5.5 0 0 1 .5-.482z" fill="#525968"/><path d="M6 2.707 6.707 2l.707.707-.707.707z" fill="#FFF6E9" opacity=".45"/><path d="M4 4.707 4.707 4l.707.707-.707.707z" fill="#FFF6E9" opacity=".2"/><path d="M10.793 1.5 11.5.793l.707.707-.707.707z" fill="#FFF6E9" opacity=".3"/><path d="m12.793 2.5.707-.707.707.707-.707.707z" fill="#FFF6E9" opacity=".4"/><path d="m8.793 3.5.707-.707.707.707-.707.707z" fill="#FFF6E9" opacity=".6"/><path d="M7.793 1.5 8.5.793l.707.707-.707.707z" fill="#FFF6E9" opacity=".1"/><path d="M2.793 1.5 3.5.793l.707.707-.707.707z" fill="#FFF6E9" opacity=".5"/><path d="m.793 3.5.707-.707.707.707-.707.707z" fill="#FFF6E9" opacity=".3"/></g><path d="M3.5 7h4a.5.5 0 0 1 .5.5V14H3V7.5a.5.5 0 0 1 .5-.5Z" fill="#626875" opacity=".2"/><path d="M4 8h1v1H4V8Zm2 0h1v1H6V8Zm-2 2h1v1H4v-1Zm2 0h1v1H6v-1Zm-2 2h1v1H4v-1Zm2 0h1v1H6v-1Z" fill="#585E6F"/><path d="M10.5 6h2a.5.5 0 0 1 .5.5V14h-3V6.5a.5.5 0 0 1 .5-.5Z" fill="#626875" opacity=".2"/><path d="M11 7h1v1h-1V7Zm0 2h1v1h-1V9Zm0 2h1v1h-1v-1Z" fill="#585E6F"/></g></svg>