<svg xmlns="http://www.w3.org/2000/svg" xmlns:xlink="http://www.w3.org/1999/xlink" viewBox="0 0 16 16"><defs><linearGradient id="b" x1="50%" x2="50%" y1="0%" y2="100%"><stop offset="0%" stop-color="#453FB3"/><stop offset="100%" stop-color="#D8CEE1"/></linearGradient><linearGradient id="c" x1="50%" x2="50%" y1="0%" y2="100%"><stop offset="0%" stop-color="#6D64A8"/><stop offset="100%" stop-color="#201A4B"/></linearGradient><radialGradient id="d" cx="51.503%" cy="57.962%" r="134.177%" fx="51.503%" fy="57.962%" gradientTransform="matrix(0 1 -.92857 0 1.053 .065)"><stop offset="0%" stop-color="#FBE58A" stop-opacity=".524"/><stop offset="100%" stop-color="#6059BB" stop-opacity="0"/></radialGradient><rect id="a" width="16" height="15" rx="1"/></defs><g fill="none" fill-rule="evenodd"><use xlink:href="#a" fill="url(#b)"/><rect width="15" height="14" x=".5" y=".5" stroke="url(#c)" rx="1"/><rect fill="url(#d)" width="14" height="13" x="1" y="1" rx="1"/><path d="M1.5 6h2a.5.5 0 0 1 .5.5V14H1V6.5a.5.5 0 0 1 .5-.5Zm7 3h2a.5.5 0 0 1 .5.5V14H8V9.5a.5.5 0 0 1 .5-.5Z" fill="#67628C"/><path d="M5.5 5h3a.5.5 0 0 1 .5.5V12H5V5.5a.5.5 0 0 1 .5-.5Z" fill="#67628C" opacity=".67"/><path d="M12.5 5h2a.5.5 0 0 1 .5.5V14h-3V5.5a.5.5 0 0 1 .5-.5Z" fill="#67628C"/><path d="M6 2.707 6.707 2l.707.707-.707.707z" fill="#FFF6E9" opacity=".45"/><path d="M4 4.707 4.707 4l.707.707-.707.707z" fill="#FFF6E9" opacity=".2"/><path d="M10.793 1.5 11.5.793l.707.707-.707.707z" fill="#FFF6E9" opacity=".3"/><path d="m12.793 2.5.707-.707.707.707-.707.707z" fill="#FFF6E9" opacity=".4"/><path d="m8.793 3.5.707-.707.707.707-.707.707z" fill="#FFF6E9" opacity=".6"/><path d="M7.793 1.5 8.5.793l.707.707-.707.707z" fill="#FFF6E9" opacity=".1"/><path d="M2.793 1.5 3.5.793l.707.707-.707.707z" fill="#FFF6E9" opacity=".5"/><path d="m.793 3.5.707-.707.707.707-.707.707z" fill="#FFF6E9" opacity=".3"/><path d="M3.5 7h4a.5.5 0 0 1 .5.5V14H3V7.5a.5.5 0 0 1 .5-.5Z" fill="#433D68"/><path d="M4 8h1v1H4V8Zm2 0h1v1H6V8Zm-2 2h1v1H4v-1Zm2 0h1v1H6v-1Zm-2 2h1v1H4v-1Zm2 0h1v1H6v-1Z" fill="#F7C683" opacity=".5"/><path d="M10.5 6h2a.5.5 0 0 1 .5.5V14h-3V6.5a.5.5 0 0 1 .5-.5Z" fill="#433D68"/><path d="M11 7h1v1h-1V7Zm0 2h1v1h-1V9Zm0 2h1v1h-1v-1Z" fill="#F7C683" opacity=".5"/></g></svg>