<svg xmlns="http://www.w3.org/2000/svg" viewBox="0 0 16 16"><g fill="none"><path d="M6.267 11.984c1.175.11 1.775.094 3.07-.106 0 0 .39.631.866.782-3.488 1.438-7.04-.036-4.339-1.036 0 0-.566.27.403.36zm-.433-1.848c1.32.108 2.363.117 4.167-.158 0 0 .164.616.556.725-4.208 1.255-8.061.08-5.075-1.042 0 0-.668.391.352.475z" fill="#679EC3"/><path d="M8.566 8s2.196-.833 1.188-1.877c-.565-.716-1.492-1.401 1.43-3.334 0 0-5.323 1.338-2.39 3.82C9.226 7.243 8.565 8 8.565 8Z" fill="#F8981D"/><path d="M11.626 13.552c-1.792.643-6.634.792-8.209-.02-.566-.292.138-.562.471-.647.349-.089.548-.072.548-.072-.63-.526-4.012 1.166-1.784 1.785 5.173 1.44 11.84-.448 9.936-1.733 0 0-.02.348-.962.687zm-6.604-5.24c.895.022 2.286.016 3.752-.072 1.197-.072 2.38-.177 2.38-.177s-.403.77-.709.919c-3.103.811-8.824.377-7.06-.78 1.388-.63 2.506-.423 2.506-.423s-2.086.504-.869.533zm6.05 2.955c2.068-.972 1.8-1.9.658-1.708-.28.047-.405.088-.405.088s.206-.487.405-.544c2.261-.642 4 1.893-.73 2.897 0 0 .055-.04.071-.075v-.658z" fill="#679EC3"/><path d="M7.778 4c-1.665 1.71.185 2.644.278 4-1.47-1.247-2.648-2.787-1.924-3.808C7.194 2.692 9.017 2.375 9.142 0c0 0 1.39 1.67-1.364 4Z" fill="#F8981D"/><path d="M14 14s-.692.55-2.966 1.107c-2.69.501-5.15.558-7.01.167.001 0 .357.5 2.315.66 2.978.243 7.553-.135 7.661-1.934Z" fill="#679EC3"/></g></svg>