<svg xmlns="http://www.w3.org/2000/svg" viewBox="0 0 16 16"><path d="M1 1h12a1 1 0 0 1 1 1v12a1 1 0 0 1-1 1H1a1 1 0 0 1-1-1V2a1 1 0 0 1 1-1Zm4.804 6.053v5.165s.256.62-.681.62c-.625 0-.96-.245-1.004-.736l-.958.6c.305.85.983 1.288 2.034 1.314 1.05.026 1.69-.573 1.916-1.798V7.053H5.804Zm6.089 1.915.946-.823C12.342 7.382 11.589 7 10.579 7 9.066 7 8.565 8.183 8.565 8.906c0 .724.359 1.488 1.412 2.065s1.532.64 1.52 1.125c-.002.446-.086.759-.916.791-.554.022-1.095-.303-1.624-.973l-1.153.795C8.674 13.569 9.6 14 10.58 14c1.47 0 2.42-.814 2.42-1.995 0-.788-.764-1.5-2.293-2.135-.653-.272-.979-.655-.979-1.148.149-.47.376-.706.68-.706.578-.071 1.072.246 1.485.952Z" fill="#585E6F" fill-rule="evenodd"/></svg>