<svg xmlns="http://www.w3.org/2000/svg" viewBox="0 0 16 16"><g fill="#585E6F"><path d="M.583 1.615H13.4v12.768H.583z" opacity=".1"/><path d="M1.159 2.158h11.63v11.668H1.16V2.158ZM.5 15h13a.5.5 0 0 0 .5-.5v-13a.5.5 0 0 0-.5-.5H.5a.5.5 0 0 0-.5.5v13a.5.5 0 0 0 .5.5Zm8.327-7.722c0 .214.105.364.723.692.914.453 1.2.889 1.2 1.527 0 .955-.711 1.468-1.672 1.468-.507 0-.944-.107-1.195-.257-.04-.017-.046-.047-.046-.095v-.877c0-.06.029-.078.07-.048a2.12 2.12 0 0 0 1.17.352c.46 0 .653-.197.653-.465 0-.215-.134-.406-.722-.716-.828-.406-1.171-.818-1.171-1.504 0-.77.588-1.408 1.608-1.408.5 0 .85.078 1.043.167.046.03.058.078.058.12v.817c0 .048-.03.078-.088.06-.256-.167-.635-.269-1.013-.269-.46 0-.618.24-.618.436Zm-4.523-.062c.134.012.24.012.472.012.682 0 1.323-.244 1.323-1.193 0-.758-.46-1.14-1.235-1.14-.233 0-.455.012-.56.018v2.303ZM3.301 4.143c.373-.018.926-.03 1.503-.03 1.614 0 2.243.907 2.243 2.065 0 1.515-1.072 2.165-2.388 2.165-.222 0-.298-.012-.455-.012l.007 2.539c.002.048-.015.071-.068.071l-.89.003c-.047 0-.07-.016-.07-.07l-.007-6.655c0-.042.081-.072.128-.072Z"/></g></svg>