<svg xmlns="http://www.w3.org/2000/svg" viewBox="0 0 16 16"><path d="M8 14c-4.418 0-8-2.686-8-6s3.582-6 8-6 8 2.686 8 6-3.582 6-8 6Zm-5.014-3 .234-1.26h.587c.372 0 .679-.041.92-.123.24-.082.574-.22.77-.413.166-.159.185-.334.287-.526.102-.191.246-.64.289-.872.104-.562.025-1-.236-1.313-.262-.314-.678-.36-1.248-.36h-1.31a.4.4 0 0 0-.395.323L2 11h.986Zm1.346-4.082c.375 0 .482.073.607.218.124.144.154.393.089.745-.068.367-.245.719-.44.876-.194.156-.347.235-.745.235H3.36l.413-2.074h.56Zm3.946-2.132h-.979l-.948 5.226h1.063l.54-3.225h.485c.25 0 .414.043.49.13.078.087.094.25.05.488l-.428 2.607h.994l.444-2.715c.084-.45.021-.774-.187-.974-.208-.2-.586-.3-1.135-.3h-.575l.183-1.237ZM10.98 11l.234-1.26h.658c.372 0 .679-.041.92-.123.24-.082.459-.22.656-.413.165-.159.299-.334.401-.526.102-.191.246-.64.289-.872.104-.562.025-.89-.236-1.203-.262-.314-.678-.47-1.248-.47h-1.38a.4.4 0 0 0-.393.323L9.997 11h.986Zm1.274-4.082c.375 0 .625.073.75.218.124.144.154.393.09.745-.069.367-.246.719-.44.876-.195.156-.49.235-.888.235h-.413l.413-2.074h.488Z" fill="#6181B6" fill-rule="evenodd"/></svg>