<svg xmlns="http://www.w3.org/2000/svg" viewBox="0 0 16 16"><g fill="#585E6F"><path d="M8.34 1a10.33 10.33 0 0 0-1.712.145c-1.516.265-1.792.82-1.792 1.845L4.83 4.105H8v.815H3.485c-1.042 0-1.954.62-2.24 1.8-.327 1.35-.335 2.068.008 3.48.255 1.051.573 1.8 1.614 1.8H4.1v-1.622c0-1.171 1.023-2.205 2.238-2.205h3.87c.998 0 1.793-.812 1.793-1.803V2.99c0-.962-.82-1.685-1.792-1.845A11.285 11.285 0 0 0 8.34 1Zm-1.804.89a.604.604 0 0 1 0 1.207.603.603 0 0 1 0-1.207Z" opacity=".8"/><path d="M12.916 5v1.645c0 1.212-1.044 2.233-2.234 2.233H6.788C5.81 8.878 5 9.703 5 10.668v3.273c0 .959.843 1.52 1.788 1.794 1.133.328 2.218.388 3.573 0 .9-.256 1.788-.773 1.788-1.79V12.85H8.763v-.808h5.171c1.04 0 1.426-.603 1.788-1.674.373-1.104.357-2.165 0-3.58C15.47 5.766 15.3 5 14.26 5h-1.343Zm-2.459 8.751a.542.542 0 1 1 .003 1.083.542.542 0 0 1-.003-1.083Z"/></g></svg>