<svg xmlns="http://www.w3.org/2000/svg" viewBox="0 0 16 16"><path d="M2.565 14.86c-.125-1.105-.045-2.353.24-3.744.428-2.086 1.057-3.477 2.14-5.464 1.083-1.986 2.82-3.626 5.337-3.85C12.8 1.58 14.79 3.567 14.79 3.567l-.302.447s-.755-.844-2.14-.695c-1.385.147-3.827 1.54-4.205 4.593-.377 3.054 1.12 6.947 1.12 6.947H2.566ZM1.22 10.967l1.309.1-.227 1.29-1.233-.148.15-1.242Zm2.064-2.732L2.1 7.863l.378-1.043 1.158.447-.353.968ZM4.92 4.907l-.907-.596.705-.77.882.572-.68.794Zm1.787-3.08.831-.421.604.67-.83.472-.605-.72Zm2.946-.819 1.083.05.1.646-1.032.025-.15-.72Zm3.5.77.83.596-.15.224-.705-.373.025-.447Zm-.151 1.913.68.148v.298l-.68-.074V3.69Zm-2.165.322.705-.174.1.398-.478.372-.327-.596Zm-1.033.77.504.745-.303.522-.73-.795.53-.472ZM8.797 6.845l.73.546-.2.82-.857-.72.327-.646Zm-.352 2.26L9.4 9.6l.05.82-1.057-.447.05-.87Zm.302 3.08h1.107l.479.968-1.334-.075-.252-.894Z" fill="#585E6F"/></svg>