<svg xmlns="http://www.w3.org/2000/svg" viewBox="0 0 16 16"><g fill="#5B6071" fill-rule="evenodd"><path d="M12.3 4.234c.323.17.557.354.7.555v1.949-1.755c-.435.438-1.025.77-1.773.995-.678.205-2.7.516-4.386.758-1.098-.156-2.052-.283-2.4-.332a9.52 9.52 0 0 1-1.44-.296V4.246v1.82c.157-.123.635-.223 1.432-.302 1.195-.12 5.48-.715 6.794-1.11a6.074 6.074 0 0 0 1.072-.42Zm-5.69 7.453c-.999-.14-1.845-.254-2.168-.3A9.52 9.52 0 0 1 3 11.092V9.23v1.82c.158-.122.636-.223 1.433-.302 1.195-.119 5.48-.714 6.794-1.11a6.074 6.074 0 0 0 1.072-.42c.324.17.558.355.701.556v1.915-1.787c-.435.438-1.025.77-1.773.995-.709.214-2.888.545-4.616.79Z" opacity=".5"/><path d="M3 7.368a9.408 9.408 0 0 1 1.433-.296c.88-.125 5.673-.755 6.794-1.093.748-.226 1.338-.557 1.773-.995v3.702c-.305.372-.896.69-1.773.952-1.315.395-5.6.99-6.794 1.11-.797.079-1.275.18-1.433.302V7.368Zm0 4.918a9.408 9.408 0 0 1 1.433-.296c.88-.125 5.673-.755 6.794-1.093.748-.226 1.338-.557 1.773-.995v3.702c-.305.372-.896.69-1.773.952-1.315.395-5.6.99-6.794 1.11-.797.08-1.275.18-1.433.302v-3.682Zm0-9.902a9.408 9.408 0 0 1 1.433-.296c.88-.125 5.673-.755 6.794-1.093C11.975.77 12.565.438 13 0v3.702c-.305.372-.896.69-1.773.953-1.315.394-5.6.99-6.794 1.109-.797.079-1.275.18-1.433.302V2.384Z"/></g></svg>