<svg xmlns="http://www.w3.org/2000/svg" viewBox="0 0 16 16"><g fill="none" fill-rule="evenodd"><path d="M3 11.091v-3.68c.16.122.64.222 1.442.302 1.202.118 5.514.714 6.837 1.109.882.263 1.456.58 1.721.952v3.702c-.395-.438-.969-.77-1.72-.995-1.129-.338-5.952-.968-6.838-1.093A9.52 9.52 0 0 1 3 11.091Zm0-4.983V2.426c.16.122.64.223 1.442.302 1.202.119 5.514.715 6.837 1.11.882.263 1.456.58 1.721.952v3.702c-.395-.438-.969-.77-1.72-.995-1.129-.338-5.952-.968-6.838-1.093A9.52 9.52 0 0 1 3 6.108Z" fill="#89001C"/><path d="M3 7.368v3.682c.158-.123.636-.223 1.433-.303 1.195-.118 5.48-.714 6.794-1.109.877-.263 1.468-.58 1.773-.952V4.984c-.435.438-1.025.77-1.773.995-1.12.338-5.914.968-6.794 1.093A9.408 9.408 0 0 0 3 7.368zm0 4.918v3.682c.158-.123.636-.223 1.433-.303 1.195-.118 5.48-.714 6.794-1.109.877-.263 1.468-.58 1.773-.952V9.902c-.435.438-1.025.77-1.773.995-1.12.338-5.914.968-6.794 1.093A9.408 9.408 0 0 0 3 12.286zm0-9.902v3.682c.158-.122.636-.223 1.433-.302 1.195-.119 5.48-.715 6.794-1.11.877-.263 1.468-.58 1.773-.952V0c-.435.438-1.025.77-1.773.995-1.12.338-5.914.968-6.794 1.093A9.408 9.408 0 0 0 3 2.384z" fill="#EF2938"/></g></svg>