<svg xmlns="http://www.w3.org/2000/svg" xmlns:xlink="http://www.w3.org/1999/xlink" viewBox="0 0 16 16"><defs><circle id="a" cx="1.5" cy="1.5" r="1.5"/><circle id="b" cx="14.5" cy="1.5" r="1.5"/></defs><g fill="none" fill-rule="evenodd"><g transform="translate(0 1)"><path d="M1.723 1.387c.786-.5 1.532-.87 2.239-1.11 1.06-.36 3.784-.475 3.472 1.208-.33 3.448 5.77 2.096 6.692.403" stroke="#424859" stroke-width="2"/><use xlink:href="#a" fill="#373D49"/><circle cx="1.5" cy="1.5" r="1" stroke="#585E6F"/><use xlink:href="#b" fill="#373D49"/><circle cx="14.5" cy="1.5" r="1" stroke="#585E6F"/></g><path d="M7.011 2v5.628a.5.5 0 1 0 1 0V2a1.009 1.009 0 0 1 .288.25l3.51 4.486a1 1 0 0 1 .145.981l-2.118 5.41h-4.65L3.07 7.717a1 1 0 0 1 .144-.979l3.51-4.487A.997.997 0 0 1 7.012 2Zm.483 7.863a.736.736 0 0 0-.733.729.715.715 0 0 0 .718.723h.051a.736.736 0 0 0 .734-.729.715.715 0 0 0-.719-.723h-.051Z" fill="#CDE5FC"/><path d="M4.5 13h6a.5.5 0 0 1 .5.5v2a.5.5 0 0 1-.5.5h-6a.5.5 0 0 1-.5-.5v-2a.5.5 0 0 1 .5-.5Z" fill="#3A6C9E"/></g></svg>