<svg xmlns="http://www.w3.org/2000/svg" viewBox="0 0 16 16"><path d="M11.56 13.17c-1.65.91-3.917 1.005-6.198.07-1.847-.752-3.38-2.068-4.362-3.572.472.376 1.022.677 1.611.94 2.358 1.056 4.714.984 6.371.003a.017.017 0 0 1-.002-.003C6.62 8.878 4.615 6.623 3.122 4.782c-.314-.301-.55-.677-.786-1.015 1.808 1.578 4.677 3.57 5.698 4.135-2.16-2.18-4.087-4.887-4.008-4.812 3.42 3.308 6.602 5.188 6.602 5.188.106.056.187.104.252.146.07-.168.13-.342.18-.522.55-1.917-.078-4.098-1.454-5.902 3.183 1.842 5.07 5.3 4.284 8.195-.02.078-.043.155-.067.23l.028.033c1.571 1.88 1.14 3.872.943 3.496-.853-1.596-2.431-1.108-3.234-.784Z" fill="#585E6F"/></svg>