<svg xmlns="http://www.w3.org/2000/svg" viewBox="0 0 16 16"><g fill="none" fill-rule="evenodd"><path d="M14.622 5.49a4.078 4.078 0 0 1 .03.49 4.825 4.825 0 0 1-.166 1.296 3.45 3.45 0 0 1-.16.453l-.034.07-.013.027-.05.024-.095.046-.103.046.17-.654c-.04-.01-.412-.108-1.052-.228l.055-.013a2.89 2.89 0 0 0 .39-.127 1.58 1.58 0 0 0 .186-.09.631.631 0 0 0 .162-.124c-.641.211-1.967.115-3.146-.008a31.89 31.89 0 0 0-3.245-.187 31.9 31.9 0 0 0-3.245.187c-1.178.123-2.504.22-3.146.008.045.051.103.09.163.124.059.034.12.064.184.09a2.879 2.879 0 0 0 .533.157c-.584.113-.923.2-.96.211l.168.696-.19-.088-.097-.046a2.73 2.73 0 0 1-.048-.024L.903 7.8a2.1 2.1 0 0 1-.094-.216c-.037-.1-.07-.203-.1-.307a4.786 4.786 0 0 1-.12-1.9 3.3 3.3 0 0 1 .474-.328 6.18 6.18 0 0 1 .572-.296c.195-.093.394-.177.595-.258a8.71 8.71 0 0 1 .304-.12c.1-.04.203-.077.306-.114a8.524 8.524 0 0 0-1.05.26C2.76 1.965 5.031 0 7.554 0c2.526 0 4.882 1.966 5.849 4.52a8.403 8.403 0 0 0-1.05-.26c.102.037.204.074.306.114.1.038.203.078.303.12.201.081.401.165.596.258.196.09.388.187.571.296.17.098.333.206.476.328l.017.115ZM9.02 3.077l.014-1.254-2.996.007-.015 1.254.568-.007v-.401h.53l.016 1.973h-.328v.45H8.18v-.451h-.327L7.84 2.675h.653v.4h.528Z" fill="#585E6F" opacity=".8"/><path d="m9.495 6.448-1.057 1.67-.097.239c.086-.036.077.07.077.07.84 0 2.65-.65 3.954-1.166.167-.062.593.105.41.454-.143.273.808.435 1.255.203l-.262.826-1.06 1.491a.114.114 0 0 1-.046.077l-.853.684a.111.111 0 0 1-.076.02l-2.646-.298c-.044-.006-.014-.15-.094-.08L8.483 8.98c-.134-.035-.557-.06-.857-.06-.3 0-.642.081-.775.116l-.723 1.655a.112.112 0 0 1-.082.08l-2.615.399a.113.113 0 0 1-.063-.02l-.693-.651a.112.112 0 0 1-.046-.078l-.591-.84-.31-.832c.982-.453 2.367-1.041 3.624-1.39l-.593.775.106.086c.08-.065 3.825-.688 3.825-.688l.464-1.138.341.056Zm4.705.858c.023.006.032.012.025.016l-.01.032a1.518 1.518 0 0 0-.015-.048Zm-8.126-.893-.112.147-3.512.286s-.082-.16-.217-.3a3.74 3.74 0 0 1 .233-.022c-.057.07 2.07.02 3.608-.11ZM12.4 12.93l-1.23-.027c-.456-.11-.783-.282-1.105-.386l-.767-.602-1.501.38-1.736-.153-.482.532a8.782 8.782 0 0 1-.444-.044 1.75 1.75 0 0 0-.095.13c-.175.057-1.05.452-1.687.642-1.153-.857-.68-1.604-.71-1.692-.01-.034-.023-.068-.034-.102l.056.039-.014-.063.762.56 3.358-.755.462-1.452a.112.112 0 0 1 .088-.078c.126-.02.236-.031.33-.031.091 0 .202.01.327.03a.11.11 0 0 1 .088.079l.332 1.597 3.641.533.901-.465c-.04.447-.138 1.104-.542 1.328Zm-2.186 1.927c-.005.35-1.189 1.19-2.2 1.143-.903-.042-2.054-.53-2.319-.828.094-.004.186-.013.278-.028.7-.11 1.132-.282 1.357-.694a1.3 1.3 0 0 1 .21-.285 5.84 5.84 0 0 1 .31-.09.67.67 0 0 1 .204-.03c.298.232.947.708 1.378.79.185.035.475.037.782.022Zm.283-4.625c.461-.009.714-.152.945-.04-.003-.012-.076-.23-.395-.192a.69.69 0 0 0 .042-.34c-.042-.543-.355-.974-.698-.962-.342.012-.562.462-.543 1.006.019.544.307.54.65.528Zm-5.858.126c.343-.004.628.03.623-.515-.005-.544-.245-.984-.587-.98-.344.002-.675.448-.655.992a.87.87 0 0 0 .06.318c-.299.075-.381.262-.386.274.189-.103.401-.088.734-.087h.111l.1-.002Z" fill="#585E6F" opacity=".7"/><path d="M2.55 13.634a4.637 4.637 0 0 1-.029-.014l-.16-.14.19.154Zm9.974-.701-1.984-.043-1.24-.975-1.5.38-1.736-.153-.97 1.072-1.825.55-.91-.285-.046-.04.41 1.01s.75.363 1.267.48c.517.12 1.284.325 1.984.215.7-.11 1.132-.282 1.357-.694.226-.413.564-.534.564-.534s.963.81 1.538.92c.575.108 2.151-.108 2.151-.108s1.042-.287 1.226-.649c.183-.362.667-1.549.667-1.549l-.524.28-.43.123Z" fill="#636877"/></g></svg>