<svg xmlns="http://www.w3.org/2000/svg" viewBox="0 0 16 16"><g fill="none" fill-rule="evenodd"><path d="M5.64 12.704c-.132.186-.265.41-.41.635-.176.057-.641.546-1.278.736-1.153-.857-1.275-2.277-1.305-2.365l-.035-.102.056.039-.202-.915L1.114 7.21c-.15-.61.252-1.01 1.206-1.2-.082.1 4.2.672 5.003.402.685-.052 3.795.109 3.986.112-.087.069 1.714.023 2.6.199.51.101.367.566.314.599l-1.219 3.84c-.107.014-.445 1.706-1.24 2.024-.446.178-1.67-.215-2.446-.166-1.02.064-2.52-.133-3.68-.316Zm4.974 1.853c.264.264-1.488 1.495-2.598 1.443-1.11-.052-3.029-1.045-2.786-1.262.508-.458 2.164-1.084 2.25-1.102l3.134.921Z" fill="#E1C8A5"/><path d="m9.515 6.417-1.173.688S4.945 8.153 4.865 8.218l-.106-.086.593-.775C3.092 7.98.42 9.383.42 9.383l-.187.04c.68-.757.687-2.34 1.244-2.91.525-.54.973.333.973.333l3.512-.286.302-.395c2.053-.177 3.28-.177 3.68 0l-.404.238 4.322.24c.176.228.51.877.346 1.126-.282.426-1.593.258-1.426-.058.183-.35-.243-.516-.41-.45-1.303.515-3.115 1.165-3.954 1.165 0 0 .01-.105-.077-.07l.097-.238 1.077-1.7zM2.55 13.634a4.637 4.637 0 0 1-.029-.014l-.16-.14.19.154zm9.974-.701-1.984-.043-1.24-.975-1.5.38-1.736-.153-.97 1.072-1.825.55-.91-.285-.046-.04.41 1.01s.75.363 1.267.48c.517.12 1.284.325 1.984.215.7-.11 1.132-.282 1.357-.694.226-.413.564-.534.564-.534s.963.81 1.538.92c.575.108 2.151-.108 2.151-.108s1.042-.287 1.226-.649c.183-.362.667-1.549.667-1.549l-.524.28-.43.123z" fill="#D0102A"/><path d="M14.622 5.49a2.26 2.26 0 0 0-.017-.114 3.266 3.266 0 0 0-.476-.328 6.293 6.293 0 0 0-.575-.296 11.128 11.128 0 0 0-.596-.258 11.312 11.312 0 0 0-.61-.234 8.403 8.403 0 0 1 1.05.26C12.436 1.965 10.08 0 7.555 0 5.03 0 2.76 1.966 1.794 4.52a8.524 8.524 0 0 1 1.05-.26c-.103.037-.205.074-.306.114a12.02 12.02 0 0 0-.304.12c-.2.081-.4.165-.595.258a6.18 6.18 0 0 0-.572.296 3.3 3.3 0 0 0-.476.328 3.303 3.303 0 0 0-.033.277A4.825 4.825 0 0 0 .71 7.276a3.502 3.502 0 0 0 .16.453 2.1 2.1 0 0 0 .033.07l.014.026.048.024.096.046.19.088-.169-.696c.038-.01.377-.098.96-.21a2.879 2.879 0 0 1-.533-.157 1.797 1.797 0 0 1-.183-.09.632.632 0 0 1-.163-.124c.642.211 1.968.115 3.146-.008a31.9 31.9 0 0 1 3.245-.187 31.89 31.89 0 0 1 3.245.187c1.179.123 2.505.22 3.146.008a.631.631 0 0 1-.162.124 1.66 1.66 0 0 1-.185.09 2.89 2.89 0 0 1-.39.127l-.06.013c.64.12 1.013.217 1.053.228l-.17.654.102-.046.096-.046.049-.024.013-.027a2.555 2.555 0 0 0 .094-.216c.038-.1.07-.203.1-.307a4.761 4.761 0 0 0 .136-1.785Z" fill="#E9C870"/><path d="m13.984 11.065-1.942 1.002-3.641-.533-.332-1.597a.11.11 0 0 0-.088-.078 2.09 2.09 0 0 0-.328-.03c-.093 0-.203.01-.33.03a.112.112 0 0 0-.087.078l-.462 1.452-3.358.755-1.544-1.133-.815-2.03.174-.099.28-.057 1.12 1.593c.005.032.023.06.048.078l.693.65c.018.013.04.02.063.02l2.615-.398a.112.112 0 0 0 .082-.077l.723-1.655a3.39 3.39 0 0 1 .775-.115c.299 0 .722.024.856.06L9 10.633c.08-.071.05.073.094.079l2.646.298a.111.111 0 0 0 .076-.02l.853-.684a.114.114 0 0 0 .046-.077l1.332-1.873c.184.035.337.068.458.094l-.52 2.616Z" fill="#181E24"/><path d="m12.65 11.297.112-.08a7.289 7.289 0 0 1-.06.234c-.156.504-.34.95-.544 1.344a2.025 2.025 0 0 1-.143.005 5.44 5.44 0 0 1-.497-.03 53.593 53.593 0 0 1-.954-.104c-.133-.107-.59-.474-.97-.775l-.04-.034a.408.408 0 0 0-.296-.122c-.14 0-.344.051-.838.202.257-.194.258-.444.258-.444l.012-.105 3.254.373a.112.112 0 0 0 .077-.019l.327-.231.302-.214" fill="#E1C8A5"/><path d="M10.498 10.232c-.342.012-.63.016-.65-.528-.018-.544.202-.994.544-1.006.343-.012.656.42.698.962a.69.69 0 0 1-.042.34c.32-.04.392.18.395.193-.23-.113-.484.03-.945.04Zm-5.858.126a7.576 7.576 0 0 1-.212.002c-.333 0-.545-.016-.734.087.005-.012.087-.199.386-.274a.87.87 0 0 1-.059-.318c-.02-.544.311-.99.655-.992.342-.004.582.436.587.98.005.544-.28.511-.623.515Z" fill="#292C2D"/><path d="M5.296 1.63c-.532 1.22-.723 2.335-.572 3.347l.91.286c1.165.301.305.595-2.58.88-.16.001-.103-.638.098-.95.007-.011.007.131 0 .428l.634-.64c.014-1.357.517-2.472 1.51-3.348Zm4.74 0c.607.876.917 1.993.93 3.35l2.373.964c.235.35.268.523.098.521-2.886-.285-4.373-.614-4.46-.988l1.212-.498a27.939 27.939 0 0 1-.153-3.35Z" fill="#A57140"/><path d="M9.029 3.184h-.528v-.401h-.652l.014 1.973h.328v.453l-1.375-.003v-.453h.327l-.014-1.973H6.6l.001.402-.568.007.014-1.254 2.997-.007z" fill="#B93346"/></g></svg>