<svg xmlns="http://www.w3.org/2000/svg" viewBox="0 0 16 16"><g fill="#585E6F" fill-rule="evenodd"><path d="M1 2h14a1 1 0 0 1 1 1v11a1 1 0 0 1-1 1H1a1 1 0 0 1-1-1V3a1 1 0 0 1 1-1Zm0 1v2h2V3H1Zm0 3v2h2V6H1Zm0 3v2h2V9H1Zm0 3v2h2v-2H1Zm12-9v2h2V3h-2Zm0 3v2h2V6h-2Zm0 3v2h2V9h-2Zm0 3v2h2v-2h-2ZM6.382 5.237A.25.25 0 0 0 6 5.45v5.112a.25.25 0 0 0 .377.215l4.214-2.494a.25.25 0 0 0 .005-.428L6.382 5.237Z" opacity=".8"/><path d="M10.193 7.606 6.382 5.237A.25.25 0 0 0 6 5.45v5.112a.25.25 0 0 0 .309.243L3 13.53V12H1v2h1.43l-.794.653A1 1 0 0 1 0 13.88V3a1 1 0 0 1 1-1h13.213A1 1 0 0 1 15 3.617V3h-2v2h.357l-3.164 2.606ZM1 3v2h2V3H1Zm0 3v2h2V6H1Zm0 3v2h2V9H1Z"/></g></svg>