<svg xmlns="http://www.w3.org/2000/svg" viewBox="0 0 16 16"><path d="m2.407 13.99 4.66-5.755L2 2.03c.13-.01.208-.022.288-.022.781 0 1.562.008 2.344-.005a.553.553 0 0 1 .482.24c1.052 1.309 2.111 2.604 3.17 3.9.076.093.155.179.242.278 1.125-1.372 2.241-2.726 3.346-4.094.18-.225.359-.331.62-.325.823.02 1.646.007 2.508.007-.03.074-.067.143-.108.208a6125.37 6125.37 0 0 1-5.133 6.293c-1.42 1.737-2.847 3.466-4.263 5.21a.651.651 0 0 1-.567.28c-.748-.018-1.497-.006-2.244-.006l-.278-.003Z" fill="#585E6F"/></svg>