<svg xmlns="http://www.w3.org/2000/svg" viewBox="0 0 16 16"><path d="M4.453 3.66c.556.139.952.085 1.188-.16.356-.37.941-1.12 2.067-.967C7.86 1.512 8.098 1 8.416 1c.318 0 .639.51.961 1.532.31-.437.556-.621.736-.552.27.103 1.24 2.797.59 4.252-.432.97-.997 1.6-1.694 1.89 1.017.555 1.582 1.246 1.695 2.075.17 1.242-.185 2.029-.25 2.359.41.115.788.05 1.133-.194.517-.367 2.493-1.125 3.027-1.215.533-.09 1.02-.127 1.01.433-.007.56-.436.716-.723.716s-2.16.612-2.737 1.147c-.385.358-1.194.676-2.428.955-.09.203-.332.327-.727.37-.593.068-2.613.28-3.166.22-.554-.057-1.066-.1-.976-.72.06-.411.235-.631.524-.66-.294-.09-.454-.225-.482-.405-.042-.27-.08.625-.208.803-.127.177-.28.828-1.043.725-.762-.103-1.096-.27-1.086-.552.006-.188.117-.433.33-.736-.308.205-.503.205-.584 0-.122-.306-.4-1-.294-1.56.107-.557.72-.982 1.014-1.203-.197-1.073-.12-1.925.232-2.558.35-.634.93-1.162 1.736-1.587-.687-.742-.993-1.328-.918-1.76a3.65 3.65 0 0 1 .365-1.115Z" fill="#5A5F6F" fill-rule="evenodd"/></svg>