<svg xmlns="http://www.w3.org/2000/svg" xmlns:xlink="http://www.w3.org/1999/xlink" viewBox="0 0 16 16"><defs><path d="M2.5 1h8.744a.5.5 0 0 1 .36.152l3.255 3.362a.5.5 0 0 1 .14.348V15.5a.5.5 0 0 1-.5.5h-12a.5.5 0 0 1-.501-.5v-14a.5.5 0 0 1 .5-.5ZM5 1v9a3 3 0 0 0 6 0V1H5Z" id="a"/></defs><g fill="none" fill-rule="evenodd"><use xlink:href="#a" fill="#595F70"/><path d="M2.625 1.625v13.75h11.75V4.913L11.19 1.625H2.626Zm1.75-1.25h7.25V10a3.625 3.625 0 0 1-7.25 0V.375Z" stroke="#595F70" stroke-width="1.25"/><path d="M5 1h6v9a3 3 0 0 1-6 0V1Zm1 6v3a2 2 0 1 0 4 0V7H6Zm0-6v1h2V1H6Zm2 1v1h2V2H8Zm0 2v1h2V4H8ZM6 3v1h2V3H6Zm0 2v1h2V5H6Zm2 1v1h2V6H8Z" fill="#595F70" opacity=".54"/><path d="M6.625 7.625V10a1.375 1.375 0 0 0 2.75 0V7.625h-2.75Zm-.625-6h2L7.375 1v1L8 1.375H6L6.625 2V1L6 1.625Zm2 1h2L9.375 2v1L10 2.375H8L8.625 3V2L8 2.625Zm0 2h2L9.375 4v1L10 4.375H8L8.625 5V4L8 4.625Zm-2-1h2L7.375 3v1L8 3.375H6L6.625 4V3L6 3.625Zm0 2h2L7.375 5v1L8 5.375H6L6.625 6V5L6 5.625Zm2 1h2L9.375 6v1L10 6.375H8L8.625 7V6L8 6.625Z" stroke="#595F70" stroke-width="1.25"/></g></svg>